<mxfile host="app.diagrams.net" agent="Mozilla/5.0 (X11; Linux x86_64) AppleWebKit/537.36 (KHTML, like Gecko) Chrome/131.0.0.0 Safari/537.36" version="26.0.6">
  <diagram name="Page-1" id="WKWc72kT9ms7Dnqw43nY">
    <mxGraphModel dx="2199" dy="759" grid="1" gridSize="10" guides="1" tooltips="1" connect="1" arrows="1" fold="1" page="1" pageScale="1" pageWidth="827" pageHeight="1169" math="0" shadow="0">
      <root>
        <mxCell id="0" />
        <mxCell id="1" parent="0" />
        <mxCell id="3ZN4kEDKgWEgKxyQS_zH-4" value="&lt;font style=&quot;font-size: 15px;&quot;&gt;Database&lt;/font&gt;" style="shape=cylinder3;whiteSpace=wrap;html=1;boundedLbl=1;backgroundOutline=1;size=15;strokeWidth=1.6;fillColor=#d0cee2;strokeColor=#000000;" vertex="1" parent="1">
          <mxGeometry x="586" y="225" width="80" height="90" as="geometry" />
        </mxCell>
        <mxCell id="3ZN4kEDKgWEgKxyQS_zH-14" style="edgeStyle=orthogonalEdgeStyle;rounded=0;orthogonalLoop=1;jettySize=auto;html=1;exitX=1;exitY=0.5;exitDx=0;exitDy=0;entryX=0;entryY=0.5;entryDx=0;entryDy=0;strokeWidth=1.6;" edge="1" parent="1" source="3ZN4kEDKgWEgKxyQS_zH-5" target="3ZN4kEDKgWEgKxyQS_zH-6">
          <mxGeometry relative="1" as="geometry" />
        </mxCell>
        <mxCell id="3ZN4kEDKgWEgKxyQS_zH-15" style="edgeStyle=orthogonalEdgeStyle;rounded=0;orthogonalLoop=1;jettySize=auto;html=1;exitX=0.5;exitY=0;exitDx=0;exitDy=0;entryX=0;entryY=0.5;entryDx=0;entryDy=0;strokeWidth=1.6;" edge="1" parent="1" source="3ZN4kEDKgWEgKxyQS_zH-5" target="3ZN4kEDKgWEgKxyQS_zH-8">
          <mxGeometry relative="1" as="geometry" />
        </mxCell>
        <mxCell id="3ZN4kEDKgWEgKxyQS_zH-16" style="edgeStyle=orthogonalEdgeStyle;rounded=0;orthogonalLoop=1;jettySize=auto;html=1;exitX=0.5;exitY=1;exitDx=0;exitDy=0;entryX=0;entryY=0.5;entryDx=0;entryDy=0;strokeWidth=1.6;" edge="1" parent="1" source="3ZN4kEDKgWEgKxyQS_zH-5" target="3ZN4kEDKgWEgKxyQS_zH-7">
          <mxGeometry relative="1" as="geometry" />
        </mxCell>
        <mxCell id="3ZN4kEDKgWEgKxyQS_zH-5" value="&lt;font style=&quot;font-size: 15px;&quot;&gt;API Gateway&lt;/font&gt;" style="rounded=0;whiteSpace=wrap;html=1;strokeWidth=1.6;fillColor=#f8cecc;strokeColor=#000000;" vertex="1" parent="1">
          <mxGeometry x="140" y="240" width="100" height="60" as="geometry" />
        </mxCell>
        <mxCell id="3ZN4kEDKgWEgKxyQS_zH-19" style="edgeStyle=orthogonalEdgeStyle;rounded=0;orthogonalLoop=1;jettySize=auto;html=1;exitX=1;exitY=0.5;exitDx=0;exitDy=0;strokeWidth=1.6;" edge="1" parent="1" source="3ZN4kEDKgWEgKxyQS_zH-6" target="3ZN4kEDKgWEgKxyQS_zH-4">
          <mxGeometry relative="1" as="geometry" />
        </mxCell>
        <mxCell id="3ZN4kEDKgWEgKxyQS_zH-21" style="edgeStyle=orthogonalEdgeStyle;rounded=0;orthogonalLoop=1;jettySize=auto;html=1;exitX=0.5;exitY=1;exitDx=0;exitDy=0;entryX=1;entryY=0.25;entryDx=0;entryDy=0;strokeWidth=1.6;" edge="1" parent="1" source="3ZN4kEDKgWEgKxyQS_zH-6" target="3ZN4kEDKgWEgKxyQS_zH-7">
          <mxGeometry relative="1" as="geometry" />
        </mxCell>
        <mxCell id="3ZN4kEDKgWEgKxyQS_zH-6" value="&lt;font style=&quot;font-size: 15px;&quot;&gt;Delivery-service&lt;/font&gt;" style="rounded=0;whiteSpace=wrap;html=1;strokeWidth=1.6;fillColor=#dae8fc;strokeColor=#000000;" vertex="1" parent="1">
          <mxGeometry x="365" y="240" width="115" height="60" as="geometry" />
        </mxCell>
        <mxCell id="3ZN4kEDKgWEgKxyQS_zH-7" value="&lt;font style=&quot;font-size: 15px;&quot;&gt;Stock-service&lt;/font&gt;" style="rounded=0;whiteSpace=wrap;html=1;strokeWidth=1.6;fillColor=#dae8fc;strokeColor=#000000;" vertex="1" parent="1">
          <mxGeometry x="280" y="419" width="100" height="60" as="geometry" />
        </mxCell>
        <mxCell id="3ZN4kEDKgWEgKxyQS_zH-17" style="edgeStyle=orthogonalEdgeStyle;rounded=0;orthogonalLoop=1;jettySize=auto;html=1;exitX=1;exitY=0.5;exitDx=0;exitDy=0;strokeWidth=1.6;" edge="1" parent="1" source="3ZN4kEDKgWEgKxyQS_zH-8" target="3ZN4kEDKgWEgKxyQS_zH-4">
          <mxGeometry relative="1" as="geometry" />
        </mxCell>
        <mxCell id="3ZN4kEDKgWEgKxyQS_zH-20" style="edgeStyle=orthogonalEdgeStyle;rounded=0;orthogonalLoop=1;jettySize=auto;html=1;exitX=1;exitY=0.75;exitDx=0;exitDy=0;entryX=0.5;entryY=0;entryDx=0;entryDy=0;strokeWidth=1.6;" edge="1" parent="1" source="3ZN4kEDKgWEgKxyQS_zH-8" target="3ZN4kEDKgWEgKxyQS_zH-6">
          <mxGeometry relative="1" as="geometry" />
        </mxCell>
        <mxCell id="3ZN4kEDKgWEgKxyQS_zH-8" value="&lt;font style=&quot;font-size: 15px;&quot;&gt;Order-service&lt;/font&gt;" style="rounded=0;whiteSpace=wrap;html=1;strokeWidth=1.6;fillColor=#dae8fc;strokeColor=#000000;" vertex="1" parent="1">
          <mxGeometry x="280" y="40" width="100" height="60" as="geometry" />
        </mxCell>
        <mxCell id="3ZN4kEDKgWEgKxyQS_zH-12" style="edgeStyle=orthogonalEdgeStyle;rounded=0;orthogonalLoop=1;jettySize=auto;html=1;exitX=1;exitY=0.5;exitDx=0;exitDy=0;entryX=0;entryY=0.5;entryDx=0;entryDy=0;strokeWidth=1.6;" edge="1" parent="1" source="3ZN4kEDKgWEgKxyQS_zH-11" target="3ZN4kEDKgWEgKxyQS_zH-5">
          <mxGeometry relative="1" as="geometry" />
        </mxCell>
        <mxCell id="3ZN4kEDKgWEgKxyQS_zH-11" value="&lt;font style=&quot;font-size: 15px;&quot;&gt;Frontend server&lt;/font&gt;" style="rounded=0;whiteSpace=wrap;html=1;strokeWidth=1.6;fillColor=#d5e8d4;strokeColor=#000000;" vertex="1" parent="1">
          <mxGeometry x="-40" y="240" width="100" height="60" as="geometry" />
        </mxCell>
        <mxCell id="3ZN4kEDKgWEgKxyQS_zH-13" value="" style="endArrow=classic;html=1;rounded=0;entryX=0;entryY=0.5;entryDx=0;entryDy=0;strokeWidth=1.6;" edge="1" parent="1" target="3ZN4kEDKgWEgKxyQS_zH-11">
          <mxGeometry width="50" height="50" relative="1" as="geometry">
            <mxPoint x="-120" y="270" as="sourcePoint" />
            <mxPoint x="-110" y="225" as="targetPoint" />
          </mxGeometry>
        </mxCell>
        <mxCell id="3ZN4kEDKgWEgKxyQS_zH-18" style="edgeStyle=orthogonalEdgeStyle;rounded=0;orthogonalLoop=1;jettySize=auto;html=1;exitX=1;exitY=0.5;exitDx=0;exitDy=0;entryX=0.5;entryY=1;entryDx=0;entryDy=0;entryPerimeter=0;strokeWidth=1.6;" edge="1" parent="1" source="3ZN4kEDKgWEgKxyQS_zH-7" target="3ZN4kEDKgWEgKxyQS_zH-4">
          <mxGeometry relative="1" as="geometry" />
        </mxCell>
        <mxCell id="3ZN4kEDKgWEgKxyQS_zH-28" value="&lt;font style=&quot;font-size: 14px;&quot;&gt;Client&lt;/font&gt;" style="text;html=1;align=center;verticalAlign=middle;whiteSpace=wrap;rounded=0;" vertex="1" parent="1">
          <mxGeometry x="-180" y="255" width="60" height="30" as="geometry" />
        </mxCell>
      </root>
    </mxGraphModel>
  </diagram>
</mxfile>
